{
    "asset" : {
        "generator" : "Khronos glTF Blender I/O v1.3.48",
        "version" : "2.0"
    },
    "scene" : 0,
    "scenes" : [
        {
            "name" : "Scene",
            "nodes" : [
                0,
                1,
                2
            ]
        }
    ],
    "nodes" : [
        {
            "name" : "Light",
            "rotation" : [
                0.16907575726509094,
                0.7558803558349609,
                -0.27217137813568115,
                0.570947527885437
            ],
            "translation" : [
                4.076245307922363,
                5.903861999511719,
                -1.0054539442062378
            ]
        },
        {
            "name" : "Camera",
            "rotation" : [
                0.483536034822464,
                0.33687159419059753,
                -0.20870360732078552,
                0.7804827094078064
            ],
            "translation" : [
                24.313610076904297,
                12.69155502319336,
                21.821374893188477
            ]
        },
        {
            "mesh" : 0,
            "name" : "Plane"
        }
    ],
    "materials" : [
        {
            "doubleSided" : true,
            "emissiveFactor" : [
                0,
                0,
                0
            ],
            "name" : "grass",
            "pbrMetallicRoughness" : {
                "baseColorFactor" : [
                    0.07756570726633072,
                    1,
                    0.14607609808444977,
                    1
                ],
                "metallicFactor" : 0,
                "roughnessFactor" : 0.5
            }
        },
        {
            "doubleSided" : true,
            "emissiveFactor" : [
                0,
                0,
                0
            ],
            "name" : "mntain",
            "pbrMetallicRoughness" : {
                "baseColorTexture" : {
                    "index" : 0,
                    "texCoord" : 0
                },
                "metallicFactor" : 0,
                "roughnessFactor" : 0.5
            }
        }
    ],
    "meshes" : [
        {
            "name" : "Plane",
            "primitives" : [
                {
                    "attributes" : {
                        "POSITION" : 0,
                        "NORMAL" : 1,
                        "TEXCOORD_0" : 2
                    },
                    "indices" : 3,
                    "material" : 0
                },
                {
                    "attributes" : {
                        "POSITION" : 4,
                        "NORMAL" : 5,
                        "TEXCOORD_0" : 6
                    },
                    "indices" : 7,
                    "material" : 1
                }
            ]
        }
    ],
    "textures" : [
        {
            "source" : 0
        }
    ],
    "images" : [
        {
            "bufferView" : 8,
            "mimeType" : "image/png",
            "name" : "mntain Base Color"
        }
    ],
    "accessors" : [
        {
            "bufferView" : 0,
            "componentType" : 5126,
            "count" : 9106,
            "max" : [
                10.09687328338623,
                2.6857821941375732,
                10.393692016601562
            ],
            "min" : [
                -10.630462646484375,
                -0.09121048450469971,
                -10.855121612548828
            ],
            "type" : "VEC3"
        },
        {
            "bufferView" : 1,
            "componentType" : 5126,
            "count" : 9106,
            "type" : "VEC3"
        },
        {
            "bufferView" : 2,
            "componentType" : 5126,
            "count" : 9106,
            "type" : "VEC2"
        },
        {
            "bufferView" : 3,
            "componentType" : 5123,
            "count" : 13524,
            "type" : "SCALAR"
        },
        {
            "bufferView" : 4,
            "componentType" : 5126,
            "count" : 600,
            "max" : [
                10.119233131408691,
                4.133654594421387,
                10.763161659240723
            ],
            "min" : [
                -10.154020309448242,
                0.4172789752483368,
                -10.93054485321045
            ],
            "type" : "VEC3"
        },
        {
            "bufferView" : 5,
            "componentType" : 5126,
            "count" : 600,
            "type" : "VEC3"
        },
        {
            "bufferView" : 6,
            "componentType" : 5126,
            "count" : 600,
            "type" : "VEC2"
        },
        {
            "bufferView" : 7,
            "componentType" : 5123,
            "count" : 900,
            "type" : "SCALAR"
        }
    ],
    "bufferViews" : [
        {
            "buffer" : 0,
            "byteLength" : 109272,
            "byteOffset" : 0
        },
        {
            "buffer" : 0,
            "byteLength" : 109272,
            "byteOffset" : 109272
        },
        {
            "buffer" : 0,
            "byteLength" : 72848,
            "byteOffset" : 218544
        },
        {
            "buffer" : 0,
            "byteLength" : 27048,
            "byteOffset" : 291392
        },
        {
            "buffer" : 0,
            "byteLength" : 7200,
            "byteOffset" : 318440
        },
        {
            "buffer" : 0,
            "byteLength" : 7200,
            "byteOffset" : 325640
        },
        {
            "buffer" : 0,
            "byteLength" : 4800,
            "byteOffset" : 332840
        },
        {
            "buffer" : 0,
            "byteLength" : 1800,
            "byteOffset" : 337640
        },
        {
            "buffer" : 0,
            "byteLength" : 20569,
            "byteOffset" : 339440
        }
    ],
    "buffers" : [
        {
            "byteLength" : 360012,
            "uri" : "data:application/octet-stream;base64,"
        }
    ]
}
